<svg xmlns="http://www.w3.org/2000/svg" viewBox="0 0 112 112" role="img" aria-labelledby="title">
  <title>CosmWasm</title>
  <rect x="8" y="8" width="96" height="96" rx="22" fill="#EEE8FF"/>
  <svg x="24" y="24" width="64" height="64" viewBox="0 0 50 50" aria-hidden="true">
    <circle cx="25" cy="25" r="25" fill="url(#paint0_linear_2959_2237)"/>
    <path d="M20.1121 41.5345C23.6919 39.4677 25.2674 35.5006 25.465 31.6328C25.6533 27.9465 22.0161 25.8032 18.77 24.0461C14.6674 21.8255 11.8746 17.4836 11.8746 12.4999C11.8746 10.6022 12.2811 8.79792 13.0101 7.16799C13.2234 6.69114 12.6872 6.16449 12.257 6.46071C6.36471 10.5172 2.5 17.3053 2.5 24.9999C2.5 31.6205 4.69687 21.9716 9.75301 37.9048C10.6936 40.8688 13.0395 43.4635 16.1061 42.9474C17.4878 42.7149 18.8744 42.2489 20.1121 41.5345Z" fill="#1F1F1F"/>
    <path d="M13.141 12.4962C13.1411 16.6298 15.7889 19.9778 19.0398 22.0828C22.138 24.089 25.8128 22.0107 28.9575 20.0781C32.9319 17.6354 38.0885 17.3878 42.4045 19.8797C44.048 20.8285 45.4073 22.0827 46.4543 23.529C46.7606 23.9521 47.4848 23.7511 47.4434 23.2304C46.8765 16.0993 42.9302 9.35829 36.2665 5.51099C30.5329 2.20068 37.7906 8.92766 21.4641 5.33985C18.4268 4.67241 15.0068 5.40662 13.9205 8.32043C13.431 9.63334 13.1412 11.0671 13.141 12.4962Z" fill="#1F1F1F"/>
    <path d="M41.7715 20.9811C38.1916 18.9145 33.9683 19.5335 30.5199 21.2963C27.2333 22.9764 27.1958 27.198 27.2972 30.8877C27.4253 35.551 25.0615 40.1405 20.7455 42.6323C19.102 43.5812 17.3362 44.1313 15.5602 44.3149C15.0406 44.3687 14.8526 45.0963 15.3242 45.3209C21.7834 48.3955 29.5944 48.3483 36.2581 44.501C41.9917 41.1907 32.5371 44.1126 43.8075 31.7673C45.9042 29.4707 46.9784 26.1418 44.9981 23.7441C44.1058 22.6637 43.009 21.6958 41.7715 20.9811Z" fill="#1F1F1F"/>
    <defs>
      <linearGradient id="paint0_linear_2959_2237" x1="9.3" y1="2.1001" x2="41.3" y2="47.7001" gradientUnits="userSpaceOnUse">
        <stop stop-color="#FCECB2"/>
        <stop offset="0.260417" stop-color="#FF8B89"/>
        <stop offset="0.520833" stop-color="#FC8ADC"/>
        <stop offset="0.755208" stop-color="#7954FF"/>
        <stop offset="1" stop-color="#70BCFF"/>
      </linearGradient>
    </defs>
  </svg>
</svg>
