<?xml version="1.0" encoding="UTF-8"?>
<svg xmlns="http://www.w3.org/2000/svg" width="1380" height="860" viewBox="0 0 1380 860">
  <rect width="1380" height="860" fill="#ffffff" />
  <text x="110" y="42" font-family="Arial, sans-serif" font-size="30" font-weight="700" fill="#0f172a">Hardhat Local Network harness verification gas curve</text>
  <text x="110" y="68" font-family="Arial, sans-serif" font-size="16" fill="#475569">Range 25000, batch size 128, duplicate-checking harness enabled</text>
  <text x="605" y="804" text-anchor="middle" font-family="Arial, sans-serif" font-size="16" fill="#0f172a">Run progress</text>
  <text transform="translate(26 412) rotate(-90)" text-anchor="middle" font-family="Arial, sans-serif" font-size="16" fill="#0f172a">Batch gas per generated value</text>
  <rect x="110" y="90" width="990" height="644" fill="#fcfcfd" stroke="#cbd5e1" stroke-width="1.5" />
  
      <line x1="110" y1="90" x2="110" y2="734" stroke="#f1f5f9" stroke-width="1" />
      <text x="110" y="762" text-anchor="middle" font-family="Arial, sans-serif" font-size="14" fill="#475569">0%</text>
    

      <line x1="308" y1="90" x2="308" y2="734" stroke="#f1f5f9" stroke-width="1" />
      <text x="308" y="762" text-anchor="middle" font-family="Arial, sans-serif" font-size="14" fill="#475569">20%</text>
    

      <line x1="506" y1="90" x2="506" y2="734" stroke="#f1f5f9" stroke-width="1" />
      <text x="506" y="762" text-anchor="middle" font-family="Arial, sans-serif" font-size="14" fill="#475569">40%</text>
    

      <line x1="704" y1="90" x2="704" y2="734" stroke="#f1f5f9" stroke-width="1" />
      <text x="704" y="762" text-anchor="middle" font-family="Arial, sans-serif" font-size="14" fill="#475569">60%</text>
    

      <line x1="902" y1="90" x2="902" y2="734" stroke="#f1f5f9" stroke-width="1" />
      <text x="902" y="762" text-anchor="middle" font-family="Arial, sans-serif" font-size="14" fill="#475569">80%</text>
    

      <line x1="1100" y1="90" x2="1100" y2="734" stroke="#f1f5f9" stroke-width="1" />
      <text x="1100" y="762" text-anchor="middle" font-family="Arial, sans-serif" font-size="14" fill="#475569">100%</text>
    

      <line x1="110" y1="734" x2="1100" y2="734" stroke="#e5e7eb" stroke-width="1" />
      <text x="96" y="739" text-anchor="end" font-family="Arial, sans-serif" font-size="14" fill="#475569">0</text>
    

      <line x1="110" y1="626.6666666666666" x2="1100" y2="626.6666666666666" stroke="#e5e7eb" stroke-width="1" />
      <text x="96" y="631.6666666666666" text-anchor="end" font-family="Arial, sans-serif" font-size="14" fill="#475569">7191</text>
    

      <line x1="110" y1="519.3333333333334" x2="1100" y2="519.3333333333334" stroke="#e5e7eb" stroke-width="1" />
      <text x="96" y="524.3333333333334" text-anchor="end" font-family="Arial, sans-serif" font-size="14" fill="#475569">14383</text>
    

      <line x1="110" y1="412" x2="1100" y2="412" stroke="#e5e7eb" stroke-width="1" />
      <text x="96" y="417" text-anchor="end" font-family="Arial, sans-serif" font-size="14" fill="#475569">21574</text>
    

      <line x1="110" y1="304.6666666666667" x2="1100" y2="304.6666666666667" stroke="#e5e7eb" stroke-width="1" />
      <text x="96" y="309.6666666666667" text-anchor="end" font-family="Arial, sans-serif" font-size="14" fill="#475569">28766</text>
    

      <line x1="110" y1="197.33333333333337" x2="1100" y2="197.33333333333337" stroke="#e5e7eb" stroke-width="1" />
      <text x="96" y="202.33333333333337" text-anchor="end" font-family="Arial, sans-serif" font-size="14" fill="#475569">35957</text>
    

      <line x1="110" y1="90" x2="1100" y2="90" stroke="#e5e7eb" stroke-width="1" />
      <text x="96" y="95" text-anchor="end" font-family="Arial, sans-serif" font-size="14" fill="#475569">43149</text>
    
  <path d="M 115.0688 394.2067478454336 L 120.1376 499.181892498638 L 125.2064 525.1766739929499 L 130.2752 534.4415599605796 L 135.344 536.603020765568 L 140.4128 536.3231747315833 L 145.48160000000001 539.3171774876757 L 150.5504 542.1866487586449 L 155.6192 535.6122492027484 L 160.688 536.1102585407268 L 165.7568 537.4066452931603 L 170.8256 537.6997840137591 L 175.8944 535.9590250798609 L 180.9632 535.8788025501187 L 186.03199999999998 536.7316333386866 L 191.1008 542.2668712883872 L 196.1696 538.2944568359762 L 201.2384 541.4407424755619 L 206.3072 541.5559457595522 L 211.376 537.4680948181227 L 216.4448 539.371980669331 L 221.5136 537.1750727000381 L 226.5824 537.6997840137591 L 231.65120000000002 539.0857214970677 L 236.72 538.1977933517375 L 241.78879999999998 538.2594760817282 L 246.8576 538.1721407986222 L 251.9264 539.9735330398837 L 256.9952 539.832560600264 L 262.06399999999996 534.8303127427898 L 267.1328 541.4756066272957 L 272.2016 538.7771912445996 L 277.2704 534.3766123601924 L 282.3392 537.5578787540261 L 287.40799999999996 543.065015497814 L 292.4768 538.4294825473738 L 297.54560000000004 542.000434543531 L 302.6144 541.0929171758219 L 307.6832 541.7071792204181 L 312.752 538.8191681496974 L 317.82079999999996 540.3563390938717 L 322.8896 539.0599523414382 L 327.9584 538.8191681496974 L 333.0272 539.6454135650367 L 338.096 539.0052657622971 L 343.1648 541.167192977342 L 348.2336 540.9160311618409 L 353.30240000000003 535.6472299569965 L 358.3712 539.3788602176664 L 363.44 539.4138409719145 L 368.5088 538.1721407986222 L 373.57759999999996 538.4107095425941 L 378.64639999999997 538.8541489039454 L 383.7152 535.8983917724977 L 388.784 539.9735330398837 L 393.8528 537.1750727000381 L 398.9216 539.5137693265499 L 403.9904 539.4138409719145 L 409.05920000000003 536.0555719615857 L 414.128 540.5529309327459 L 419.1968 539.4137243694004 L 424.2656 538.989174615343 L 429.3344 540.6494778144705 L 434.4032 540.9160311618409 L 439.472 536.5187171478301 L 444.5408 536.8827501970384 L 449.6096 538.0210239402705 L 454.6784 538.4456902968421 L 459.74719999999996 538.4107095425941 L 464.8159999999999 541.5559457595522 L 469.88480000000004 537.9313566068813 L 474.95360000000005 540.1246498982354 L 480.0224 542.1157544300355 L 485.0912 538.4910486748504 L 490.16 536.7666140929348 L 495.2288 540.8356920295844 L 500.2976 540.5366065807634 L 505.3664 537.7091122148919 L 510.4352 541.2441506366878 L 515.504 540.8007112753364 L 520.5727999999999 537.9663373611294 L 525.6415999999999 541.1474871524489 L 530.7103999999999 536.8828667995525 L 535.7792 541.8841818369133 L 540.848 537.0784092157992 L 545.9168 538.6422821357163 L 550.9856 539.0857214970677 L 556.0544 539.2019742036854 L 561.1232 541.6526092437911 L 566.192 541.2440340341736 L 571.2608 538.9541938610948 L 576.3296 537.1750727000381 L 581.3984 538.0627676403399 L 586.4672 539.1857664542172 L 591.5360000000001 540.0281030165106 L 596.6048000000001 537.7347647680072 L 601.6736000000001 536.252280402974 L 606.7424 533.8168036897091 L 611.8112 539.3172940901899 L 616.88 538.7935155965821 L 621.9488 539.7966470259025 L 627.0176 538.4456902968421 L 632.0864 536.811972470943 L 637.1551999999999 539.548750080798 L 642.2239999999999 538.2594760817282 L 647.2927999999999 539.8768695556448 L 652.3616 542.4438739048824 L 657.4304 536.811972470943 L 662.4992 542.2123013117601 L 667.568 538.2944568359762 L 672.6368 539.2823133359418 L 677.7056 538.2944568359762 L 682.7744 539.0052657622971 L 687.8432 538.3945017931258 L 692.912 541.8840652343991 L 697.9808 540.2051056330059 L 703.0496 538.0663823182789 L 708.1184000000001 539.4138409719145 L 713.1872000000001 535.6472299569965 L 718.256 534.9013236739135 L 723.3248 539.2915249345605 L 728.3936 538.0022509354908 L 733.4624 538.4456902968421 L 738.5312 543.4665945565819 L 743.6 539.2984044828959 L 748.6688 538.3234908620022 L 753.7376 536.4384946180878 L 758.8064 539.3788602176664 L 763.8752000000001 539.0053823648112 L 768.944 542.1156378275214 L 774.0128 539.0249715871902 L 779.0816 540.2051056330059 L 784.1504 537.7347647680072 L 789.2192 539.2019742036854 L 794.288 538.7574854197067 L 799.3568 539.4138409719145 L 804.4255999999999 539.7616662716546 L 809.4943999999999 539.4684109485415 L 814.5631999999998 540.4982443536047 L 819.6319999999998 541.2441506366878 L 824.7008000000001 543.0581359494786 L 829.7696000000001 539.5300936785322 L 834.8384 536.6153806320689 L 839.9072000000001 537.4066452931603 L 844.976 540.961272937335 L 850.0448 539.4138409719145 L 855.1136 538.9890580128288 L 860.1824 537.6997840137591 L 865.2512 537.0784092157992 L 870.32 541.0929171758219 L 875.3888000000001 537.1144393926747 L 880.4576 541.2987206133148 L 885.5264 540.6844585687186 L 890.5952 535.1328962670357 L 895.664 536.5187171478301 L 900.7328 537.14009194579 L 905.8016 540.6425982661351 L 910.8704 539.5650744327804 L 915.9392 538.9704016105632 L 921.008 539.4138409719145 L 926.0768 538.4293659448597 L 931.1455999999998 539.2728685322948 L 936.2144000000001 537.885998228873 L 941.2832 537.9662207586152 L 946.352 539.9770311153085 L 951.4208 537.885998228873 L 956.4896 538.5260294290986 L 961.5584 539.9385522856355 L 966.6272 539.156615825677 L 971.6959999999999 540.5877950844798 L 976.7647999999999 541.4407424755619 L 981.8335999999999 537.3263061609039 L 986.9023999999998 540.5529309327459 L 991.9711999999998 539.548750080798 L 997.0400000000001 541.6526092437911 L 1002.1088000000001 537.14009194579 L 1007.1776000000001 537.9663373611294 L 1012.2464 539.2368383554193 L 1017.3152 536.4035138638397 L 1022.384 538.1977933517375 L 1027.4528 537.9663373611294 L 1032.5216 538.9704016105632 L 1037.5904 537.229642676665 L 1042.6592 541.47572322981 L 1047.728 534.9013236739135 L 1052.7968 540.6843419662044 L 1057.8656 538.4294825473738 L 1062.9344 539.6104328107887 L 1068.0032 537.7347647680072 L 1073.0720000000001 538.6772628899644 L 1078.1408000000001 540.7298169467269 L 1083.2096000000001 538.9087188805725 L 1088.2784000000001 538.8168360994141 L 1093.3472000000002 540.064716205957 L 1098.4159999999997 537.3790104973043 L 1100 510.3354826701324" fill="none" stroke="#d62728" stroke-width="3" stroke-linejoin="round" stroke-linecap="round" />
<path d="M 115.0688 90 L 120.1376 226.07280197471061 L 125.2064 253.43707999783453 L 130.2752 254.78267301124367 L 135.344 264.7964969273246 L 140.4128 264.64957775948267 L 145.48160000000001 257.4248859821146 L 150.5504 266.96763574098816 L 155.6192 261.20047539062296 L 160.688 270.0902510701992 L 165.7568 279.14793437016624 L 170.8256 267.37108043998256 L 175.8944 279.0733087611037 L 180.9632 267.12854721052923 L 186.03199999999998 270.50535602060967 L 191.1008 275.7897819623515 L 196.1696 279.39046759961957 L 201.2384 280.51684788640745 L 206.3072 281.878765251799 L 211.376 290.45138209285943 L 216.4448 286.5312055667923 L 221.5136 280.6777593559485 L 226.5824 285.3255355703755 L 231.65120000000002 300.95260451813016 L 236.72 284.44168851304096 L 241.78879999999998 289.74243880676516 L 246.8576 291.9951993803409 L 251.9264 302.2398962744591 L 256.9952 292.14911469903245 L 262.06399999999996 289.43694021966536 L 267.1328 299.45776028659594 L 272.2016 304.95906690467575 L 277.2704 322.3771504699317 L 282.3392 311.3162359766918 L 287.40799999999996 302.40780389484985 L 292.4768 317.2396436960317 L 297.54560000000004 297.4615252441727 L 302.6144 298.88640796721074 L 307.6832 315.8823904312066 L 312.752 306.8247071312396 L 317.82079999999996 313.22618515863644 L 322.8896 341.6072371052376 L 327.9584 304.90309769787893 L 333.0272 327.5099931432652 L 338.096 336.1572355933882 L 343.1648 306.2836714655361 L 348.2336 325.34585048045125 L 353.30240000000003 312.69214564378257 L 358.3712 325.66767341953346 L 363.44 332.8783728952024 L 368.5088 330.5696431148298 L 373.57759999999996 333.51269057223413 L 378.64639999999997 311.65904736832294 L 383.7152 333.35644320325935 L 388.784 342.2788675868005 L 393.8528 328.0137160044374 L 398.9216 350.6136152989741 L 403.9904 336.8218699241015 L 409.05920000000003 344.3613884897023 L 414.128 331.073365976002 L 419.1968 363.02478690618943 L 424.2656 350.05392323100494 L 429.3344 350.93077413748995 L 434.4032 378.11781633909027 L 439.472 351.51378670829115 L 444.5408 360.22399451606066 L 449.6096 367.3670645335166 L 454.6784 366.9263070299909 L 459.74719999999996 359.7715767611189 L 464.8159999999999 347.99472283093525 L 469.88480000000004 362.6446627100271 L 474.95360000000005 360.1750214601134 L 480.0224 365.92352540821287 L 485.0912 358.71282593254404 L 490.16 366.3612512463704 L 495.2288 398.8637356584792 L 500.2976 360.54814950542607 L 505.3664 344.016245047788 L 510.4352 357.89894038370556 L 515.504 378.0548509814437 L 520.5727999999999 381.3337136796295 L 525.6415999999999 380.76702546081077 L 530.7103999999999 390.5523084491376 L 535.7792 379.4400888496673 L 540.848 385.57571314477883 L 545.9168 392.07047318350396 L 550.9856 362.9058523417461 L 556.0544 382.546379826896 L 561.1232 399.0689560834012 L 566.192 404.16448595220345 L 571.2608 382.226888938097 L 576.3296 391.9095617139628 L 581.3984 390.5523084491376 L 586.4672 400.6570823262636 L 591.5360000000001 408.2828867523429 L 596.6048000000001 408.83558266946244 L 601.6736000000001 397.77466817622263 L 606.7424 405.9671608211207 L 611.8112 389.63814473812147 L 616.88 418.6768348645863 L 621.9488 406.44056702861127 L 627.0176 387.35506751086405 L 632.0864 408.8658993231441 L 637.1551999999999 398.19210517691624 L 642.2239999999999 410.8574702650009 L 647.2927999999999 417.90492622084554 L 652.3616 398.4276422555199 L 657.4304 406.7134169117462 L 662.4992 405.56371612212627 L 667.568 408.8425788203121 L 672.6368 411.90922494272627 L 677.7056 422.3101692058192 L 682.7744 415.4189606189493 L 687.8432 424.7278057344175 L 692.912 424.58158618166055 L 697.9808 436.19216492665174 L 703.0496 436.75488865998904 L 708.1184000000001 436.6616066486609 L 713.1872000000001 426.7457288444745 L 718.256 443.79768051526725 L 723.3248 435.2250636742068 L 728.3936 453.1771867543165 L 733.4624 434.10567953826853 L 738.5312 446.3046345697123 L 743.6 434.7516574667162 L 748.6688 428.34551533875293 L 753.7376 450.06156757595505 L 758.8064 451.50510670125874 L 763.8752000000001 438.2917097966209 L 768.944 469.5528438429799 L 774.0128 452.2513627918843 L 779.0816 453.64126476067423 L 784.1504 442.0439787022973 L 789.2192 442.4590836527077 L 794.288 447.1744893253476 L 799.3568 439.34346447434626 L 804.4255999999999 467.86677148822287 L 809.4943999999999 465.46009559595564 L 814.5631999999998 458.4173037406774 L 819.6319999999998 488.3958101312738 L 824.7008000000001 455.04515903116345 L 829.7696000000001 470.99405091800037 L 834.8384 482.93414836800844 L 839.9072000000001 473.097560273451 L 844.976 487.3510516043981 L 850.0448 484.14681451527485 L 855.1136 463.163026066999 L 860.1824 477.4351738002117 L 865.2512 474.6856865163134 L 870.32 460.90093729229045 L 875.3888000000001 494.40550371109225 L 880.4576 477.4211814985125 L 885.5264 484.39401184529453 L 890.5952 460.7610142752982 L 895.664 477.0107406486685 L 900.7328 493.63289545226655 L 905.8016 484.80678474542174 L 910.8704 487.7591604039589 L 915.9392 491.4670037517402 L 921.008 499.3810495928237 L 926.0768 492.4885583782981 L 931.1455999999998 484.6552014770135 L 936.2144000000001 481.03585943747976 L 941.2832 505.65706331498416 L 946.352 497.62140105163155 L 951.4208 508.2801534735328 L 956.4896 499.21185934477717 L 961.5584 513.804314184388 L 966.6272 501.6963091139893 L 971.6959999999999 507.4480779324854 L 976.7647999999999 512.8323156263483 L 981.8335999999999 494.1199441539139 L 986.9023999999998 491.5242555861929 L 991.9711999999998 509.3790155669788 L 997.0400000000001 509.4834914196664 L 1002.1088000000001 523.0410989461052 L 1007.1776000000001 515.104665422303 L 1012.2464 513.2464877566455 L 1017.3152 510.9927943629565 L 1022.384 514.1326668642632 L 1027.4528 516.6419529689915 L 1032.5216 516.2427059605069 L 1037.5904 514.9740706064435 L 1042.6592 515.1680971900062 L 1047.728 522.5336448044799 L 1052.7968 527.1622982065845 L 1057.8656 521.1250864334243 L 1062.9344 525.667920385107 L 1068.0032 524.2108553681607 L 1073.0720000000001 525.9365725777321 L 1078.1408000000001 523.0019205013474 L 1083.2096000000001 536.4526035223013 L 1088.2784000000001 536.6938541240987 L 1093.3472000000002 545.686939631221 L 1098.4159999999997 568.6258024344215 L 1100 554.528022100884" fill="none" stroke="#2ca02c" stroke-width="3" stroke-linejoin="round" stroke-linecap="round" />
  <text x="1132" y="62" font-family="Arial, sans-serif" font-size="18" font-weight="700" fill="#0f172a">Algorithms</text>
  
        <line x1="1132" y1="114" x2="1175" y2="114" stroke="#d62728" stroke-width="4" stroke-linecap="round" />
        <text x="1185" y="119" font-family="Arial, sans-serif" font-size="16" fill="#0f172a">Epoch Permutation</text>
        <text x="1185" y="140" font-family="Arial, sans-serif" font-size="13" fill="#475569">median 13067.7 gas/value</text>
        <text x="1185" y="160" font-family="Arial, sans-serif" font-size="13" fill="#475569">mean 13149.4 gas/value</text>
      

        <line x1="1132" y1="188" x2="1175" y2="188" stroke="#2ca02c" stroke-width="4" stroke-linecap="round" />
        <text x="1185" y="193" font-family="Arial, sans-serif" font-size="16" fill="#0f172a">Sparse Fisher-Yates</text>
        <text x="1185" y="214" font-family="Arial, sans-serif" font-size="13" fill="#475569">median 22216.9 gas/value</text>
        <text x="1185" y="234" font-family="Arial, sans-serif" font-size="13" fill="#475569">mean 22412.8 gas/value</text>
      
  <text x="110" y="838" font-family="Arial, sans-serif" font-size="13" fill="#64748b">Each point is one local batch transaction routed through the duplicate-checking harness. Values represent end-to-end verification cost for batched generation and duplicate tracking.</text>
</svg>